<svg xmlns="http://www.w3.org/2000/svg" width="32" height="32" fill="none"><path fill="#fff" d="M4.7 2.54h22.54v23.59H4.7z"/><path fill="#1f1f1f" fill-rule="evenodd" d="M1.74 2.6A2.6 2.6 0 0 1 4.34 0h23.32a2.6 2.6 0 0 1 2.6 2.6v23.41a2.6 2.6 0 0 1-2.6 2.6H12.55l-3.87 3.21a.77.77 0 0 1-1.26-.6v-2.6H4.33a2.6 2.6 0 0 1-2.6-2.6Zm5.67 2.13h12.46a4.88 4.88 0 0 1 1.54 9.53 4.89 4.89 0 0 1 3.99 4.81c0 2.7-2.18 4.9-4.88 4.9H7.42V14.5Zm10.37 4.4h-5.83v2.93h5.83a1.46 1.46 0 0 0 0-2.93zm-5.83 6.52h6.31a1.63 1.63 0 0 1 0 3.26h-6.31z" clip-rule="evenodd"/></svg>